<svg height="512pt" viewBox="0 -1 512 511" width="512pt" xmlns="http://www.w3.org/2000/svg"><path d="m488.472656 115.394531 23.527344-114.894531-114.894531 23.527344-177.457031 177.453125-30.097657-30.101563 2.289063-61.933594-191.839844-108.089843 106.394531 193.433593 62.042969-2.292968 30.097656 30.101562-61.464844 61.460938-10.492187-10.492188c-15.53125-15.53125-40.800781-15.53125-56.328125 0-7.523438 7.523438-11.667969 17.527344-11.667969 28.164063 0 10.640625 4.144531 20.644531 11.667969 28.164062l25.074219 25.074219-92.070313 92.066406 62.210938 62.210938 92.066406-92.066406 25.074219 25.074218c7.523437 7.519532 17.523437 11.664063 28.164062 11.664063 10.636719 0 20.640625-4.144531 28.164063-11.664063 15.53125-15.53125 15.53125-40.800781 0-56.332031l-10.492188-10.492187 61.339844-61.339844 199.285156 196.386718 20.957032-21.273437-199.128907-196.226563zm-328.492187 47.53125-36.292969 1.339844-46.980469-85.414063 84.617188 47.675782zm251.898437-111.445312 61.792969-12.652344-12.652344 61.792969-253.695312 253.691406-14.011719-14.011719 139.539062-139.535156-21.117187-21.117187-139.535156 139.539062-14.011719-14.011719zm-366.394531 395.554687 14.917969-14.917968 19.980468 19.980468-14.917968 14.917969zm56.011719-16.054687-19.976563-19.976563 34.917969-34.917968 19.976562 19.976562zm116.320312-23.941407c3.886719 3.886719 3.886719 10.210938 0 14.097657-1.878906 1.882812-4.382812 2.917969-7.046875 2.917969-2.664062 0-5.167969-1.035157-7.046875-2.917969l-112.359375-112.355469c-1.882812-1.882812-2.917969-4.386719-2.917969-7.050781 0-2.660157 1.035157-5.164063 2.917969-7.046875 3.890625-3.886719 10.210938-3.886719 14.097657 0zm0 0"/></svg>