<svg id="icons" height="512" viewBox="0 0 64 64" width="512" xmlns="http://www.w3.org/2000/svg"><path d="m50.979 46.739 12.02 16.26-16.26-12.02-28.43-28.42 4.25-4.25z" fill="#ccd1d9"/><path d="m23.969 16.899-1.41 1.41-4.25 4.25-1.41 1.41-2.12-2.12 1.27-2.97.85-1.98 1.98-.85 2.97-1.27z" fill="#e6e9ed"/><path d="m18.87875 16.04875-1.98.85-.85 1.98-11.88-11.89a2.98517 2.98517 0 0 0 2.82-2.82z" fill="#656d78"/><path d="m6.11875 1.87875a2.99813 2.99813 0 1 1 -4.24 0 2.97567 2.97567 0 0 1 4.24 0z" fill="#e6e9ed"/><path d="m62.999 64a.99283.99283 0 0 1 -.59375-.19629l-16.26365-12.02051a.99982.99982 0 0 1 1.18945-1.60742l16.26368 12.02051a1 1 0 0 1 -.59573 1.80371z"/><path d="m63.001 64a.99814.99814 0 0 1 -.80469-.40527l-12.02053-16.26368a.99982.99982 0 0 1 1.60742-1.18945l12.02051 16.26367a1 1 0 0 1 -.80271 1.59473z"/><path d="m46.73633 51.97949a.99672.99672 0 0 1 -.707-.293l-28.42288-28.42282a.99989.99989 0 0 1 1.41406-1.41406l28.42285 28.42285a1 1 0 0 1 -.707 1.707z"/><path d="m50.97949 47.73633a.99676.99676 0 0 1 -.707-.293l-28.42288-28.42282a.99989.99989 0 0 1 1.41406-1.41406l28.42285 28.42285a1 1 0 0 1 -.707 1.707z"/><path d="m16.89941 24.9707a.99674.99674 0 0 1 -.707-.293l-2.12109-2.12109a.99921.99921 0 0 1 -.21191-1.10059l2.12109-4.95019a.99455.99455 0 0 1 .52539-.52539l4.95019-2.12109a.99783.99783 0 0 1 1.10059.21191l2.12109 2.12109a.99964.99964 0 0 1 0 1.41407l-7.07128 7.07128a.99676.99676 0 0 1 -.70707.293zm-.93554-3.34961.93554.93555 5.65723-5.65723-.93555-.93554-3.96 1.69726z"/><path d="m4 8a4.001 4.001 0 0 1 -4-4 3.971 3.971 0 0 1 1.17188-2.82812 4.09413 4.09413 0 0 1 5.65625 0 3.99855 3.99855 0 0 1 0 5.65625 3.97105 3.97105 0 0 1 -2.82813 1.17187zm0-6a1.99978 1.99978 0 0 0 -1.41406 3.41406 2.04706 2.04706 0 0 0 2.82812 0 1.99926 1.99926 0 0 0 0-2.82812 1.98633 1.98633 0 0 0 -1.41406-.58594z"/><path d="m18.87891 17.05078a.99672.99672 0 0 1 -.707-.293l-11.88578-11.88571a.99989.99989 0 1 1 1.41407-1.41407l11.88574 11.88575a1 1 0 0 1 -.707 1.707z"/><path d="m16.05078 19.87891a.99676.99676 0 0 1 -.707-.293l-11.88578-11.88571a.99989.99989 0 1 1 1.41407-1.41407l11.88574 11.88575a1 1 0 0 1 -.707 1.707z"/></svg>