<svg height="512pt" viewBox="0 0 512 512" width="512pt" xmlns="http://www.w3.org/2000/svg"><g fill="#809399"><path d="m218.5 7.5-30 75h135l-30-75zm0 0"/><path d="m53.765625 106.800781 31.820313 74.246094 95.460937-95.460937-74.246094-31.816407zm0 0"/><path d="m7.5 293.5 75 30v-135l-75 30zm0 0"/><path d="m106.800781 458.234375 74.246094-31.820313-95.460937-95.460937-31.816407 74.246094zm0 0"/><path d="m293.5 504.5 30-75h-135l30 75zm0 0"/><path d="m458.234375 405.199219-31.820313-74.246094-95.460937 95.460937 74.246094 31.816407zm0 0"/><path d="m504.5 218.5-75-30v135l75-30zm0 0"/><path d="m405.199219 53.765625-74.246094 31.820313 95.460937 95.460937 31.816407-74.246094zm0 0"/></g><path d="m256 46c-115.796875 0-210 94.214844-210 210 0 115.796875 94.203125 210 210 210s210-94.203125 210-210c0-115.785156-94.203125-210-210-210zm0 0" fill="#9cb5bb"/><path d="m256 98.5c-86.984375 0-157.5 70.515625-157.5 157.5s70.515625 157.5 157.5 157.5 157.5-70.515625 157.5-157.5-70.515625-157.5-157.5-157.5zm0 0" fill="#809399"/><path d="m383.5 256c0 70.417969-57.082031 127.5-127.5 127.5s-127.5-57.082031-127.5-127.5 57.082031-127.5 127.5-127.5 127.5 57.082031 127.5 127.5zm0 0" fill="#fff"/><path d="m340.433594 207.25-84.429688 93.75-84.4375-93.75 84.4375-48.75zm0 0" fill="#ffd87c"/><path d="m256.003906 256 30 48.75-30 48.75-84.4375-48.75v-97.5zm0 0" fill="#ffc43b"/><path d="m340.433594 207.25-30 17.320312-30 48.75 30 48.75 30-17.320312zm0 0" fill="#ff852b"/><path d="m256.003906 256v97.5l54.429688-31.429688v-97.5zm0 0" fill="#ffa433"/><path d="m507.285156 211.535156-42.660156-17.0625c-4.347656-14.707031-10.261719-28.945312-17.625-42.425781l18.125-42.292969c1.210938-2.816406.578125-6.089844-1.589844-8.257812l-53.03125-53.03125c-2.167968-2.167969-5.4375-2.800782-8.257812-1.589844l-42.292969 18.125c-13.480469-7.363281-27.71875-13.277344-42.425781-17.625l-17.0625-42.660156c-1.140625-2.847656-3.898438-4.714844-6.964844-4.714844h-75c-3.066406 0-5.824219 1.867188-6.964844 4.714844l-17.0625 42.660156c-14.703125 4.34375-28.945312 10.261719-42.425781 17.625l-42.292969-18.125c-2.820312-1.207031-6.089844-.578125-8.257812 1.589844l-53.03125 53.03125c-2.167969 2.167968-2.800782 5.441406-1.589844 8.261718l18.125 42.289063c-7.363281 13.480469-13.277344 27.722656-17.625 42.425781l-42.660156 17.0625c-2.847656 1.140625-4.714844 3.898438-4.714844 6.964844v75c0 3.066406 1.867188 5.824219 4.714844 6.964844l42.660156 17.0625c4.34375 14.703125 10.257812 28.945312 17.625 42.425781l-18.125 42.292969c-1.210938 2.816406-.578125 6.089844 1.589844 8.257812l53.03125 53.03125c2.167968 2.167969 5.441406 2.800782 8.257812 1.589844l42.292969-18.125c13.480469 7.363281 27.71875 13.28125 42.425781 17.625l17.0625 42.660156c1.140625 2.847656 3.898438 4.714844 6.964844 4.714844h75c3.066406 0 5.824219-1.867188 6.960938-4.714844l17.066406-42.660156c14.703125-4.34375 28.945312-10.261719 42.425781-17.625l42.289063 18.125c2.820312 1.210938 6.089843.578125 8.261718-1.589844l53.03125-53.03125c2.167969-2.167968 2.796875-5.441406 1.589844-8.257812l-18.125-42.292969c7.363281-13.480469 13.277344-27.71875 17.625-42.425781l42.660156-17.0625c2.847656-1.140625 4.714844-3.898438 4.714844-6.964844v-75c0-3.066406-1.867188-5.824219-4.714844-6.964844zm-10.285156 76.886719-41.359375 16.542969c-2.175781.871094-3.820313 2.707031-4.445313 4.964844-4.421874 15.992187-10.835937 31.429687-19.058593 45.882812-1.160157 2.039062-1.300781 4.503906-.375 6.664062l17.578125 41.007813-45.855469 45.855469-41.007813-17.578125c-2.160156-.921875-4.625-.785157-6.664062.375-14.457031 8.222656-29.890625 14.636719-45.882812 19.058593-2.257813.625-4.09375 2.269532-4.964844 4.445313l-16.542969 41.359375h-64.84375l-16.546875-41.359375c-.867188-2.175781-2.703125-3.820313-4.960938-4.445313-15.992187-4.421874-31.429687-10.835937-45.882812-19.058593-2.039062-1.160157-4.503906-1.296875-6.664062-.375l-41.011719 17.578125-45.851563-45.855469 17.574219-41.007813c.925781-2.160156.789063-4.625-.375-6.664062-8.222656-14.457031-14.632813-29.890625-19.058594-45.882812-.625-2.257813-2.269531-4.09375-4.441406-4.964844l-41.359375-16.542969v-64.84375l41.359375-16.546875c2.175781-.867188 3.820313-2.703125 4.445313-4.960938 4.421874-15.992187 10.835937-31.425781 19.058593-45.878906 1.160157-2.042968 1.300781-4.507812.375-6.664062l-17.578125-41.015625 45.851563-45.851563 41.015625 17.578125c2.15625.925781 4.625.785157 6.664062-.375 14.453125-8.222656 29.886719-14.636719 45.878906-19.058593 2.257813-.625 4.09375-2.269532 4.960938-4.445313l16.546875-41.359375h64.84375l16.546875 41.359375c.867188 2.175781 2.703125 3.820313 4.960938 4.445313 15.992187 4.421874 31.425781 10.835937 45.878906 19.058593 2.042968 1.160157 4.507812 1.300781 6.664062.375l41.015625-17.578125 45.851563 45.851563-17.578125 41.015625c-.925781 2.15625-.785157 4.621094.375 6.664062 8.222656 14.449219 14.636719 29.886719 19.058593 45.878906.625 2.257813 2.269532 4.09375 4.445313 4.960938l41.359375 16.546875zm0 0"/><path d="m256 91c-90.980469 0-165 74.019531-165 165s74.019531 165 165 165 165-74.019531 165-165-74.019531-165-165-165zm0 315c-82.710938 0-150-67.289062-150-150s67.289062-150 150-150 150 67.289062 150 150-67.289062 150-150 150zm0 0"/><path d="m256 121c-30.65625 0-59.554688 10.019531-83.570312 28.976562-3.253907 2.5625-3.808594 7.28125-1.242188 10.53125 2.566406 3.253907 7.28125 3.808594 10.535156 1.242188 21.339844-16.847656 47.027344-25.75 74.277344-25.75 66.167969 0 120 53.832031 120 120s-53.832031 120-120 120-120-53.832031-120-120c0-27.25 8.902344-52.9375 25.75-74.277344 2.566406-3.253906 2.011719-7.96875-1.242188-10.535156-3.25-2.566406-7.96875-2.011719-10.535156 1.242188-18.953125 24.015624-28.972656 52.914062-28.972656 83.570312 0 74.4375 60.5625 135 135 135s135-60.5625 135-135-60.5625-135-135-135zm0 0"/><path d="m167.8125 311.246094 84.4375 48.75c1.160156.667968 2.457031 1.003906 3.75 1.003906 1.296875 0 2.589844-.335938 3.75-1.003906l84.4375-48.75c2.320312-1.339844 3.75-3.816406 3.75-6.496094v-97.5c0-2.679688-1.429688-5.15625-3.75-6.496094l-84.4375-48.75c-2.320312-1.339844-5.179688-1.339844-7.5 0l-84.4375 48.75c-2.320312 1.339844-3.75 3.816406-3.75 6.496094v97.5c0 2.679688 1.429688 5.15625 3.75 6.496094zm11.25-91.007813 69.4375 40.089844v80.183594l-69.4375-40.089844zm84.4375 120.273438v-80.183594l69.4375-40.089844v80.183594zm-7.5-173.351563 69.4375 40.089844-69.4375 40.089844-69.4375-40.089844zm0 0"/></svg>